<?xml version="1.0" standalone="no"?>
<!DOCTYPE svg PUBLIC "-//W3C//DTD SVG 20010904//EN"
 "http://www.w3.org/TR/2001/REC-SVG-20010904/DTD/svg10.dtd">
<svg version="1.0" xmlns="http://www.w3.org/2000/svg"
 width="413.000000pt" height="531.000000pt" viewBox="0 0 413.000000 531.000000"
 preserveAspectRatio="xMidYMid meet">
<metadata>
Created by potrace 1.16, written by Peter Selinger 2001-2019
</metadata>
<g transform="translate(0.000000,531.000000) scale(0.100000,-0.100000)"
fill="#000000" stroke="none">
<path d="M2925 4329 c121 -125 168 -181 227 -274 96 -148 159 -301 200 -486
30 -136 32 -396 5 -531 -56 -278 -185 -516 -385 -710 -267 -259 -607 -390
-972 -374 -339 14 -624 136 -870 372 -198 190 -326 425 -387 707 -26 117 -25
419 1 536 57 264 176 493 370 715 27 31 47 58 45 60 -8 8 -126 -86 -208 -167
-228 -223 -368 -509 -412 -842 -16 -122 -6 -343 21 -470 150 -706 769 -1206
1495 -1207 405 -1 792 159 1080 447 201 202 332 430 401 702 68 268 56 571
-32 830 -99 291 -300 556 -549 720 -131 87 -136 82 -30 -28z"/>
<path d="M1834 4240 c-141 -32 -244 -75 -374 -157 -73 -47 -247 -222 -295
-298 -47 -74 -128 -242 -123 -256 2 -6 18 25 36 69 90 220 276 421 493 531
334 170 715 158 1039 -33 218 -128 389 -345 471 -596 16 -47 28 -78 29 -69 0
22 -53 176 -80 229 -70 139 -206 302 -325 390 -132 97 -272 159 -448 196 -96
20 -319 17 -423 -6z"/>
<path d="M2167 3676 c-103 -37 -254 -156 -366 -289 -39 -47 -71 -87 -71 -91 0
-3 44 16 98 43 53 27 115 54 137 60 57 16 157 14 229 -5 33 -9 80 -14 104 -11
57 6 150 69 168 114 16 37 17 43 7 42 -21 -3 -32 2 -27 15 4 11 -33 34 -67 40
-3 1 -13 9 -23 19 -10 9 -23 17 -31 17 -7 0 -15 6 -18 13 -6 15 -67 47 -89 47
-7 -1 -30 -7 -51 -14z"/>
<path d="M2420 3605 c0 -8 3 -15 8 -16 4 0 17 -2 30 -3 34 -4 54 -29 62 -80 4
-25 4 -43 0 -41 -3 2 -14 -12 -25 -31 -22 -40 -68 -78 -132 -106 -49 -21 -87
-21 -233 1 -75 12 -162 -4 -232 -41 -113 -60 -236 -223 -253 -333 -7 -46 -9
-47 64 55 85 117 198 180 298 166 54 -7 91 -26 158 -81 58 -47 103 -60 154
-45 57 16 92 66 61 85 -15 9 -12 25 4 25 24 0 56 -34 62 -65 9 -47 -22 -79
-75 -77 -55 2 -81 -23 -81 -80 0 -66 10 -75 62 -55 70 27 152 98 182 158 36
73 34 120 -8 205 -27 52 -32 72 -24 82 36 42 129 57 148 23 15 -29 13 -30 -19
-18 -25 9 -33 8 -50 -8 -12 -10 -21 -28 -21 -40 0 -32 20 -85 32 -85 7 0 8
-15 5 -37 -4 -21 -2 -45 4 -53 8 -13 11 -12 24 4 15 19 15 19 15 -1 0 -12 6
-23 13 -26 21 -7 47 4 47 20 0 9 27 42 60 74 42 41 60 66 60 84 0 15 -6 25
-14 25 -8 0 -18 5 -22 12 -4 7 -3 8 4 4 12 -7 104 -17 182 -19 43 -2 110 26
97 40 -3 3 -16 -2 -29 -11 -12 -9 -37 -16 -56 -16 -52 0 -172 22 -167 31 3 4
0 11 -6 15 -8 4 -9 3 -5 -4 12 -20 -15 -13 -32 8 -10 10 -24 20 -32 22 -8 2
-21 10 -28 18 -10 11 -12 11 -6 1 5 -10 3 -12 -6 -6 -10 6 -9 11 6 21 10 7 25
18 32 25 8 7 27 8 50 4 30 -5 35 -4 25 6 -21 21 -80 16 -107 -10 -20 -19 -28
-21 -45 -11 -12 6 -18 16 -15 22 4 6 3 8 -4 4 -6 -3 -13 -2 -17 4 -4 6 -11 8
-16 5 -5 -4 -9 -2 -9 3 0 5 -12 14 -26 20 -15 7 -23 17 -19 25 4 6 -1 3 -9 -7
-16 -19 -16 -19 -16 6 0 44 -18 77 -52 98 -39 24 -58 25 -58 5z"/>
<path d="M1659 3196 c-83 -57 -119 -146 -119 -295 0 -125 7 -142 44 -117 25
16 26 20 26 117 0 102 19 185 59 254 17 30 32 65 28 65 -1 0 -18 -11 -38 -24z"/>
<path d="M1481 3144 c-102 -27 -144 -66 -176 -164 -24 -73 -48 -106 -90 -120
-75 -25 -110 49 -59 124 12 17 13 15 7 -17 -4 -28 -2 -38 11 -43 9 -3 23 0 32
7 22 18 76 128 69 139 -11 18 -81 11 -115 -13 -57 -38 -71 -72 -60 -147 13
-96 59 -129 137 -99 45 17 73 49 108 124 37 82 56 101 116 118 31 9 49 22 62
45 31 52 22 62 -42 46z"/>
<path d="M1930 3121 c-76 -25 -155 -96 -214 -195 -49 -81 -48 -87 16 -69 42
13 61 13 102 4 48 -11 52 -11 69 11 49 62 86 92 151 124 39 19 80 44 90 54 20
19 19 20 -36 44 -63 28 -140 40 -178 27z"/>
<path d="M2586 3015 c-21 -52 -81 -109 -160 -151 -52 -28 -55 -32 -42 -49 14
-19 15 -19 67 5 66 31 148 110 178 172 23 49 22 68 -7 68 -11 0 -24 -17 -36
-45z"/>
<path d="M1922 2798 c-11 -18 -25 -50 -31 -70 -15 -45 -72 -98 -148 -137 -70
-35 -96 -62 -96 -100 0 -27 30 -80 46 -81 17 0 19 34 4 60 -21 35 -9 51 55 74
95 35 163 102 192 189 29 88 16 127 -22 65z"/>
<path d="M1735 2793 c-43 -10 -155 -67 -155 -78 0 -7 -15 -39 -32 -71 -28 -52
-33 -68 -33 -134 0 -58 5 -84 22 -117 26 -48 68 -84 89 -76 23 9 17 61 -10 84
-29 25 -42 94 -25 131 6 15 41 42 85 67 97 55 127 81 148 130 25 53 17 71 -31
70 -21 -1 -47 -3 -58 -6z"/>
<path d="M750 1430 l0 -180 45 0 45 0 0 59 c0 91 16 94 78 11 l52 -70 55 0
c30 0 55 1 55 3 0 2 -31 46 -70 97 -58 78 -68 96 -58 109 7 9 33 41 59 71 68
82 68 80 7 80 l-53 0 -60 -78 -60 -77 -3 78 -3 77 -44 0 -45 0 0 -180z"/>
<path d="M1215 1598 c-54 -149 -115 -317 -120 -330 -6 -16 -1 -18 42 -18 48 0
51 1 59 33 l10 32 69 0 69 0 10 -32 c8 -31 11 -33 57 -33 27 0 49 1 49 3 0 2
-29 82 -64 178 l-64 174 -56 3 c-39 2 -58 -1 -61 -10z"/>
<path d="M1510 1430 l0 -180 45 0 45 0 0 65 c0 62 1 65 24 65 19 0 36 -15 71
-65 l47 -65 54 0 c30 0 54 3 54 6 0 3 -25 37 -54 76 l-55 70 29 25 c54 45 52
130 -3 163 -27 17 -50 20 -144 20 l-113 0 0 -180z"/>
<path d="M1880 1580 c0 -27 3 -30 30 -30 l30 0 0 -120 0 -120 -30 0 c-27 0
-30 -3 -30 -30 l0 -30 105 0 105 0 0 29 c0 25 -4 30 -27 33 l-28 3 0 115 0
115 28 3 c23 3 27 8 27 33 l0 29 -105 0 -105 0 0 -30z"/>
<path d="M2170 1430 l0 -180 45 0 45 0 0 58 c0 31 5 64 10 72 10 17 6 21 77
-77 l38 -53 59 0 c45 0 56 3 49 13 -71 92 -133 177 -133 183 0 3 23 34 52 68
29 33 58 69 67 79 13 16 10 17 -41 17 l-56 0 -58 -77 -59 -76 -3 76 -3 77 -44
0 -45 0 0 -180z"/>
<path d="M2636 1601 c-6 -10 -126 -340 -126 -347 0 -3 21 -4 47 -2 44 3 48 5
57 36 l9 32 68 0 67 0 12 -35 c11 -34 13 -35 61 -35 l48 0 -30 83 c-17 45 -47
126 -66 180 l-35 97 -54 0 c-29 0 -55 -4 -58 -9z"/>
<path d="M2930 1430 l0 -180 45 0 45 0 0 65 c0 61 1 65 23 65 17 0 36 -17 70
-65 l47 -65 55 0 c30 0 55 2 55 4 0 2 -25 37 -56 77 l-56 72 25 19 c36 26 52
78 37 123 -18 53 -50 65 -180 65 l-110 0 0 -180z"/>
<path d="M500 935 l0 -135 100 0 c99 0 100 0 100 25 0 23 -4 24 -62 27 -63 3
-63 3 -63 33 0 30 1 30 58 33 53 3 57 5 57 27 0 22 -4 24 -57 27 -50 3 -58 6
-58 23 0 18 8 20 63 23 58 3 62 4 62 27 0 25 -1 25 -100 25 l-100 0 0 -135z"/>
<path d="M2450 935 l0 -135 35 0 c35 0 35 0 35 45 l0 45 44 0 c65 0 106 37
106 95 0 67 -29 85 -136 85 l-84 0 0 -135z"/>
<path d="M3160 935 l0 -135 100 0 c99 0 100 0 100 25 0 23 -4 24 -62 27 l-63
3 -3 108 -3 107 -34 0 -35 0 0 -135z"/>
<path d="M860 1000 c0 -28 -2 -30 -38 -30 -56 0 -82 -28 -82 -89 0 -66 17 -80
103 -79 l67 0 0 114 0 114 -25 0 c-21 0 -25 -5 -25 -30z"/>
<path d="M2120 915 l0 -115 30 0 30 0 0 60 c0 47 4 62 16 67 25 9 44 -24 44
-79 0 -45 2 -48 25 -48 24 0 25 2 25 68 0 89 -13 107 -68 99 l-42 -5 0 34 c0
31 -3 34 -30 34 l-30 0 0 -115z"/>
<path d="M3640 1000 c0 -28 -2 -30 -40 -30 -56 0 -80 -26 -80 -88 0 -68 17
-81 103 -80 l67 0 0 114 0 114 -25 0 c-21 0 -25 -5 -25 -30z"/>
<path d="M1990 995 c0 -14 -4 -25 -10 -25 -5 0 -10 -9 -10 -20 0 -11 5 -20 10
-20 6 0 10 -24 10 -53 0 -63 11 -77 62 -77 32 0 38 3 38 21 0 14 -5 19 -14 16
-21 -8 -36 14 -36 55 0 34 3 38 25 38 18 0 25 5 25 20 0 15 -7 20 -25 20 -20
0 -25 5 -25 25 0 20 -5 25 -25 25 -20 0 -25 -5 -25 -25z"/>
<path d="M2917 1013 c-4 -3 -7 -15 -7 -25 0 -10 -4 -18 -10 -18 -5 0 -10 -9
-10 -20 0 -11 5 -20 10 -20 6 0 10 -18 10 -39 0 -22 4 -51 10 -65 8 -23 15
-26 55 -26 39 0 45 3 45 20 0 12 -6 20 -12 19 -33 -4 -38 2 -38 46 0 41 2 45
25 45 18 0 25 5 25 20 0 15 -7 20 -25 20 -20 0 -25 5 -25 25 0 20 -5 25 -23
25 -13 0 -27 -3 -30 -7z"/>
<path d="M3390 996 c0 -14 -4 -26 -10 -26 -5 0 -10 -9 -10 -20 0 -11 5 -20 10
-20 6 0 10 -21 10 -46 0 -68 12 -84 65 -84 39 0 45 3 45 20 0 12 -6 20 -12 19
-33 -4 -38 2 -38 46 0 41 2 45 25 45 18 0 25 5 25 20 0 15 -7 20 -24 20 -18 0
-25 6 -28 23 -2 16 -11 23 -30 25 -24 3 -28 0 -28 -22z"/>
<path d="M960 896 c0 -47 5 -77 13 -84 6 -6 45 -10 85 -10 l72 0 0 84 0 84
-30 0 -30 0 0 -60 c0 -45 -4 -62 -15 -66 -28 -11 -45 16 -45 72 0 51 -1 54
-25 54 -24 0 -25 -2 -25 -74z"/>
<path d="M1166 945 c3 -14 14 -51 24 -83 16 -52 20 -57 49 -60 29 -3 31 -1 42
43 6 25 15 47 18 50 4 2 13 -19 20 -46 13 -48 15 -50 44 -47 30 3 33 7 54 78
13 41 23 79 23 83 0 5 -12 7 -27 5 -25 -3 -29 -9 -37 -50 -5 -27 -12 -48 -16
-48 -3 0 -12 23 -19 51 -12 46 -16 50 -39 47 -22 -3 -29 -11 -40 -52 -15 -54
-26 -49 -37 16 -6 34 -10 38 -36 38 -26 0 -29 -3 -23 -25z"/>
<path d="M1502 963 c-24 -9 -44 -64 -37 -99 9 -48 40 -66 112 -62 51 3 58 6
61 26 4 24 -6 27 -40 11 -16 -7 -32 -7 -51 0 -45 17 -31 31 33 31 59 0 60 0
60 28 0 49 -25 72 -78 71 -26 0 -53 -3 -60 -6z"/>
<path d="M1680 946 c0 -23 2 -24 31 -16 30 9 59 4 59 -10 0 -4 -18 -10 -40
-14 -27 -4 -45 -14 -56 -31 -15 -23 -15 -27 0 -49 14 -23 22 -25 86 -24 l70 0
0 74 c0 87 -8 94 -94 94 -53 0 -56 -1 -56 -24z"/>
<path d="M2711 918 c12 -29 26 -68 32 -85 9 -28 15 -33 43 -33 31 0 33 3 63
81 17 44 31 83 31 85 0 2 -13 4 -28 4 -26 0 -30 -5 -47 -57 l-18 -58 -19 58
c-18 52 -22 57 -49 57 l-29 0 21 -52z"/>
</g>
</svg>
